<svg xmlns="http://www.w3.org/2000/svg" preserveAspectRatio="xMidYMid" width="25" height="25" viewBox="0 0 25 25">
    <defs>
        <style>
            .cls-1 {
            fill: #000;
            fill-rule: evenodd;
            }
        </style>
    </defs>
    <path d="M20.734,7.974 L4.273,7.974 L4.266,7.974 C4.119,7.975 4.000,7.849 4.000,7.694 L4.000,6.129 C4.000,5.667 4.178,5.242 4.466,4.929 L4.482,4.910 C4.780,4.597 5.189,4.402 5.638,4.402 L8.250,4.402 L8.250,3.280 C8.250,3.126 8.369,3.000 8.516,3.000 C8.662,3.000 8.781,3.126 8.781,3.280 L8.781,6.302 C8.781,6.456 8.662,6.582 8.516,6.582 C8.369,6.582 8.250,6.456 8.250,6.302 L8.250,4.962 L5.639,4.962 C5.337,4.962 5.060,5.095 4.859,5.307 L4.845,5.320 C4.652,5.530 4.532,5.817 4.532,6.129 L4.532,7.414 L20.469,7.414 L20.469,6.129 C20.469,5.810 20.343,5.518 20.143,5.307 L20.130,5.293 C19.931,5.089 19.659,4.962 19.362,4.962 L17.546,4.962 C17.399,4.962 17.280,4.836 17.280,4.682 C17.280,4.528 17.400,4.402 17.546,4.402 L19.362,4.402 C19.800,4.402 20.204,4.590 20.500,4.893 L20.518,4.911 C20.815,5.224 21.000,5.655 21.000,6.129 L21.000,7.686 L21.000,7.694 C21.000,7.849 20.881,7.974 20.734,7.974 ZM16.485,6.582 C16.338,6.582 16.219,6.456 16.219,6.302 L16.219,4.962 L9.578,4.962 C9.432,4.962 9.312,4.837 9.312,4.682 C9.312,4.528 9.431,4.402 9.578,4.402 L16.219,4.402 L16.219,3.280 C16.219,3.126 16.338,3.000 16.485,3.000 C16.631,3.000 16.750,3.126 16.750,3.280 L16.750,6.302 C16.750,6.456 16.631,6.582 16.485,6.582 ZM6.324,10.145 C6.178,10.145 6.059,10.019 6.059,9.865 C6.059,9.711 6.178,9.585 6.324,9.585 L18.676,9.585 C18.822,9.585 18.941,9.711 18.941,9.865 C18.941,10.019 18.822,10.145 18.676,10.145 L6.324,10.145 ZM4.266,8.861 C4.412,8.861 4.531,8.987 4.531,9.141 L4.531,19.272 C4.531,19.593 4.656,19.885 4.856,20.096 C5.057,20.307 5.334,20.439 5.638,20.439 L19.361,20.439 C19.665,20.439 19.942,20.307 20.143,20.096 C20.343,19.884 20.468,19.593 20.468,19.272 L20.468,9.141 C20.468,8.987 20.587,8.861 20.734,8.861 C20.881,8.861 20.999,8.987 20.999,9.141 L20.999,19.272 C20.999,19.747 20.815,20.180 20.518,20.493 C20.222,20.805 19.812,21.000 19.361,21.000 L5.639,21.000 C5.188,21.000 4.778,20.805 4.481,20.493 C4.184,20.180 4.000,19.747 4.000,19.272 L4.000,9.141 C4.000,8.987 4.119,8.861 4.266,8.861 Z"
          class="cls-1"/>
</svg>
