<?xml version="1.0" encoding="UTF-8" standalone="no"?>
<svg width="80px" height="80px" viewBox="0 0 80 80" version="1.1" xmlns="http://www.w3.org/2000/svg"
     xmlns:sketch="http://www.bohemiancoding.com/sketch/ns">
    <!-- Generator: Sketch 3.3.3 (12081) - http://www.bohemiancoding.com/sketch -->
    <title>add_files</title>
    <desc>Created with Sketch.</desc>
    <defs></defs>
    <g id="Page-1" stroke="none" stroke-width="1" fill="none" fill-rule="evenodd" sketch:type="MSPage">
        <g id="add_files" sketch:type="MSArtboardGroup" fill="#010101">
            <g id="chat-11" sketch:type="MSLayerGroup" transform="translate(9.000000, 6.000000)">
                <g id="Group" sketch:type="MSShapeGroup">
                    <path
                            d="M50.2,29.5 L21.6,29.5 C20.8,29.5 20.1,28.8 20.1,28 C20.1,27.2 20.8,26.5 21.6,26.5 L50.2,26.5 C51,26.5 51.7,27.2 51.7,28 C51.7,28.8 51,29.5 50.2,29.5 L50.2,29.5 Z"
                            id="Shape"></path>
                    <path
                            d="M61.1,21.2 L37,0.4 C36.8,0.2 36.5,0 36.1,0 L36.1,0 L36,0 L13.7,0.2 C11.7,0.2 10,1.9 10,3.9 L10,9.8 L3.9,9.8 C1.9,9.8 0,11.5 0,13.5 L0,64.3 C0,66.3 2,68 4.1,68 L48.1,68 C50.1,68 51.8,66.2 51.8,64.2 L51.8,58 L57.7,58 C59.7,58 61.4,56.5 61.4,54.5 L61.6,22.3 C61.6,21.8 61.4,21.5 61.1,21.2 L61.1,21.2 Z M37,4.9 L46.7,13 L57.3,22 L37,22 L37,4.9 L37,4.9 Z M48.7,64.1 C48.7,64.5 48.4,65 48,65 L4,65 C3.7,65 3,64.7 3,64.3 L3,13.6 C3,13.2 3.5,12.9 3.9,12.9 L10,12.9 L10,54.7 C10,56.7 11.7,58.1 13.7,58.1 L48.7,58.1 L48.7,64.1 L48.7,64.1 Z M58.4,54.6 C58.4,55 58.1,55 57.7,55 L13.7,55 C13.3,55 13,55 13,54.6 L13,3.9 C13,3.5 13.1,3.2 13.5,3.2 L34,3 L34,17 L21.5,17 C20.7,17 20.1,17.7 20.1,18.5 C20.1,19.3 20.7,20 21.5,20 L34,20 L34,23.3 C34,24.1 35.1,25 35.9,25 L58.6,25 L58.4,54.6 L58.4,54.6 Z"
                            id="Shape"></path>
                    <path
                            d="M50.2,39.1 L21.6,39.1 C20.8,39.1 20.1,38.4 20.1,37.6 C20.1,36.8 20.8,36.1 21.6,36.1 L50.2,36.1 C51,36.1 51.7,36.8 51.7,37.6 C51.7,38.4 51,39.1 50.2,39.1 L50.2,39.1 Z"
                            id="Shape"></path>
                    <path
                            d="M50.2,48.6 L21.6,48.6 C20.8,48.6 20.1,47.9 20.1,47.1 C20.1,46.3 20.8,45.6 21.6,45.6 L50.2,45.6 C51,45.6 51.7,46.3 51.7,47.1 C51.7,47.9 51,48.6 50.2,48.6 L50.2,48.6 Z"
                            id="Shape"></path>
                </g>
            </g>
        </g>
    </g>
</svg>
