<?xml version="1.0" encoding="utf-8"?>
<!-- Generator: Adobe Illustrator 19.1.0, SVG Export Plug-In . SVG Version: 6.00 Build 0)  -->
<svg version="1.1" id="Layer_1" xmlns="http://www.w3.org/2000/svg"  x="0px" y="0px"
	 width="72px" height="72px" viewBox="0 0 72 72" enable-background="new 0 0 72 72" xml:space="preserve">
<g>
	<path d="M57.2,70H14.8c-3.9,0-7.4-2.4-9-6l-1.6-3.7H3.6c-0.8,0-1.5-0.7-1.5-1.5s0.7-1.5,1.5-1.5h10.9V39.7l-0.4-0.4h0
		c-1.3-1.3-2.1-3.1-2.1-5v-1.3c0-2,1.6-3.6,3.6-3.6h15.6v-9.7c0-0.8,0.7-1.5,1.5-1.5h6.5c0.8,0,1.5,0.7,1.5,1.5v9.7h14.6
		c2,0,3.6,1.6,3.6,3.6v1.4c0,1.6-0.5,3.1-1.4,4.3v18.7h9.3c0,0,0,0,0.1,0h1.5c0.8,0,1.5,0.7,1.5,1.5s-0.7,1.5-1.5,1.5h-0.6L66.3,64
		C64.6,67.6,61.1,70,57.2,70z M7.4,60.3l1.1,2.5c1.1,2.5,3.6,4.2,6.3,4.2h42.5c2.6,0,5.2-1.7,6.3-4.2l1.1-2.5H7.4z M17.5,57.3h37
		V41.6C52,43.1,48.6,43,46.2,41c-1.6-1.3-3.8-1.3-5.3,0l-0.4,0.3c-2.6,2.2-6.4,2.3-9.1,0.2l-0.9-0.7c-1.5-1.2-3.7-1.2-5.2,0.1
		L25.1,41c-2.1,1.8-5.1,2.1-7.6,1V57.3z M27.9,36.9c1.6,0,3.1,0.5,4.4,1.5l0.9,0.7c1.6,1.2,3.8,1.2,5.3-0.1l0.4-0.3
		c2.7-2.3,6.5-2.3,9.2-0.1c1.7,1.4,4.2,1.3,5.7-0.3l1-1.1c0.7-0.8,1.1-1.8,1.1-2.8v-1.4c0-0.3-0.3-0.6-0.6-0.6H15.6
		c-0.3,0-0.6,0.3-0.6,0.6v1.3c0,1.1,0.4,2.1,1.2,2.9l1.3,1.3c1.5,1.5,4,1.6,5.6,0.2l0.2-0.2C24.6,37.4,26.3,36.9,27.9,36.9z
		 M34.2,29.3h3.5v-8.2h-3.5V29.3z M36.3,16.4C36.3,16.4,36.3,16.4,36.3,16.4c-1.6,0-3.2-0.8-4.1-2.1c-2.2-3-0.2-6.3,0.9-8.2
		c0.3-0.6,0.6-1.1,0.9-1.7c0.3-0.6,0.6-1.1,0.9-1.7c0.2-0.4,0.6-0.7,1.1-0.7C36.6,2,37,2.1,37.4,2.4c0.4,0.4,0.7,1,0.9,1.4
		c0.1,0.1,0.1,0.2,0.2,0.4c0.3,0.5,0.5,1,0.8,1.5c0.2,0.4,0.4,0.8,0.7,1.2c0.3,0.5,0.6,1,0.8,1.5c0.9,1.8,1,3.7,0.2,5.2
		C40,15.4,38.3,16.4,36.3,16.4z M36.3,6.6c-0.2,0.4-0.4,0.7-0.6,1c-1.2,2-2,3.6-1.1,4.9c0.4,0.5,1,0.9,1.7,0.9c0,0,0,0,0,0
		c0.8,0,1.5-0.4,1.9-1.2c0.4-0.9,0.1-2-0.2-2.5c-0.2-0.4-0.5-0.9-0.7-1.3C37,7.9,36.7,7.5,36.5,7C36.4,6.9,36.4,6.8,36.3,6.6z"/>
</g>
</svg>
