<?xml version="1.0" encoding="utf-8"?>
<!-- Generator: Adobe Illustrator 19.1.0, SVG Export Plug-In . SVG Version: 6.00 Build 0)  -->
<svg version="1.1" id="Layer_1" xmlns="http://www.w3.org/2000/svg"  x="0px" y="0px"
	 width="72px" height="72px" viewBox="0 0 72 72" enable-background="new 0 0 72 72" xml:space="preserve">
<g>
	<path d="M68.5,63.3h-65c-0.8,0-1.5-0.7-1.5-1.5V19.3c0-0.8,0.7-1.5,1.5-1.5H21v-7.6c0-0.8,0.7-1.5,1.5-1.5h27
		c0.8,0,1.5,0.7,1.5,1.5v7.6h17.5c0.8,0,1.5,0.7,1.5,1.5v42.4C70,62.6,69.3,63.3,68.5,63.3z M57.5,60.3H67V20.8h-9.5V60.3z
		 M17.5,60.3h37V20.8h-37V60.3z M5,60.3h9.5V20.8H5V60.3z M24,17.8h24v-6.1H24V17.8z"/>
</g>
</svg>
