<?xml version="1.0" encoding="utf-8"?>
<!-- Generator: Adobe Illustrator 19.1.0, SVG Export Plug-In . SVG Version: 6.00 Build 0)  -->
<svg version="1.1" id="Layer_1" xmlns="http://www.w3.org/2000/svg"  x="0px" y="0px"
	 width="72px" height="72px" viewBox="0 0 72 72" enable-background="new 0 0 72 72" xml:space="preserve">
<g>
	<path d="M65.5,69.5h-59C4,69.5,2,67.5,2,65V12.1c0-2.5,2-4.5,4.5-4.5H17V5c0-0.8,0.7-1.5,1.5-1.5S20,4.2,20,5v2.6h31V5
		c0-0.8,0.7-1.5,1.5-1.5S54,4.2,54,5v2.6h11.5c2.5,0,4.5,2,4.5,4.5V65C70,67.5,68,69.5,65.5,69.5z M5,25v40c0,0.8,0.7,1.5,1.5,1.5
		h59c0.8,0,1.5-0.7,1.5-1.5V25H5z M5,22h62v-9.9c0-0.8-0.7-1.5-1.5-1.5H54V13c0,0.8-0.7,1.5-1.5,1.5S51,13.8,51,13v-2.4H20V13
		c0,0.8-0.7,1.5-1.5,1.5S17,13.8,17,13v-2.4H6.5c-0.8,0-1.5,0.7-1.5,1.5V22z M55.1,59h-6.2c-0.8,0-1.5-0.7-1.5-1.5S48,56,48.9,56
		h6.2c0.8,0,1.5,0.7,1.5,1.5S56,59,55.1,59z M39.1,59h-6.2c-0.8,0-1.5-0.7-1.5-1.5S32,56,32.9,56h6.2c0.8,0,1.5,0.7,1.5,1.5
		S40,59,39.1,59z M23.1,59h-6.2c-0.8,0-1.5-0.7-1.5-1.5S16,56,16.9,56h6.2c0.8,0,1.5,0.7,1.5,1.5S24,59,23.1,59z M55.1,48h-6.2
		c-0.8,0-1.5-0.7-1.5-1.5S48,45,48.9,45h6.2c0.8,0,1.5,0.7,1.5,1.5S56,48,55.1,48z M39.1,48h-6.2c-0.8,0-1.5-0.7-1.5-1.5
		S32,45,32.9,45h6.2c0.8,0,1.5,0.7,1.5,1.5S40,48,39.1,48z M23.1,48h-6.2c-0.8,0-1.5-0.7-1.5-1.5S16,45,16.9,45h6.2
		c0.8,0,1.5,0.7,1.5,1.5S24,48,23.1,48z M55.1,37h-6.2c-0.8,0-1.5-0.7-1.5-1.5S48,34,48.9,34h6.2c0.8,0,1.5,0.7,1.5,1.5
		S56,37,55.1,37z M39.1,37h-6.2c-0.8,0-1.5-0.7-1.5-1.5S32,34,32.9,34h6.2c0.8,0,1.5,0.7,1.5,1.5S40,37,39.1,37z M23.1,37h-6.2
		c-0.8,0-1.5-0.7-1.5-1.5S16,34,16.9,34h6.2c0.8,0,1.5,0.7,1.5,1.5S24,37,23.1,37z"/>
</g>
</svg>
