<?xml version="1.0" encoding="UTF-8" standalone="no"?>
<svg width="80px" height="80px" viewBox="0 0 80 80" version="1.1" xmlns="http://www.w3.org/2000/svg"
     xmlns:sketch="http://www.bohemiancoding.com/sketch/ns">
    <!-- Generator: Sketch 3.3.3 (12081) - http://www.bohemiancoding.com/sketch -->
    <title>delete_ad</title>
    <desc>Created with Sketch.</desc>
    <defs></defs>
    <g id="Page-1" stroke="none" stroke-width="1" fill="none" fill-rule="evenodd" sketch:type="MSPage">
        <g id="delete_ad" sketch:type="MSArtboardGroup" fill="#000000">
            <g id="chat-24" sketch:type="MSLayerGroup" transform="translate(14.000000, 6.000000)">
                <g id="Group" sketch:type="MSShapeGroup">
                    <path
                            d="M19.8769231,58.0615385 C19.04,58.0615385 18.3076923,57.3292308 18.3076923,56.4923077 L18.3076923,20.9230769 C18.3076923,20.0861538 19.04,19.3538462 19.8769231,19.3538462 C20.7138462,19.3538462 21.4461538,20.0861538 21.4461538,20.9230769 L21.4461538,56.4923077 C21.4461538,57.3292308 20.7138462,58.0615385 19.8769231,58.0615385 L19.8769231,58.0615385 Z"
                            id="Shape"></path>
                    <path
                            d="M32.4307692,58.0615385 C31.5938462,58.0615385 30.8615385,57.3292308 30.8615385,56.4923077 L30.8615385,20.9230769 C30.8615385,20.0861538 31.5938462,19.3538462 32.4307692,19.3538462 C33.2676923,19.3538462 34,20.0861538 34,20.9230769 L34,56.4923077 C34,57.3292308 33.2676923,58.0615385 32.4307692,58.0615385 L32.4307692,58.0615385 Z"
                            id="Shape"></path>
                    <path
                            d="M49.1692308,8.36923077 L34.5230769,8.36923077 L34.5230769,1.04615385 C34.5230769,0.209230769 34.3138462,0 33.4769231,0 L18.8307692,0 C17.9938462,0 16.7384615,0.209230769 16.7384615,1.04615385 L16.7384615,8.36923077 L2.09230769,8.36923077 C1.25538462,8.36923077 0.523076923,9.10153846 0.523076923,9.93846154 C0.523076923,10.7753846 1.25538462,11.5076923 2.09230769,11.5076923 L5.23076923,11.5076923 L5.23076923,65.9076923 C5.23076923,66.7446154 6.48615385,68 7.32307692,68 L43.9384615,68 C44.7753846,68 46.0307692,66.7446154 46.0307692,65.9076923 L46.0307692,11.5076923 L49.1692308,11.5076923 C50.0061538,11.5076923 50.7384615,10.7753846 50.7384615,9.93846154 C50.7384615,9.10153846 50.0061538,8.36923077 49.1692308,8.36923077 L49.1692308,8.36923077 Z M19.8769231,3.13846154 L31.3846154,3.13846154 L31.3846154,8.36923077 L19.8769231,8.36923077 L19.8769231,3.13846154 L19.8769231,3.13846154 Z M42.8923077,64.8615385 L8.36923077,64.8615385 L8.36923077,11.5076923 L42.8923077,11.5076923 L42.8923077,64.8615385 L42.8923077,64.8615385 Z"
                            id="Shape"></path>
                </g>
            </g>
        </g>
    </g>
</svg>
