<?xml version="1.0" encoding="UTF-8" standalone="no"?>
<svg width="80px" height="80px" viewBox="0 0 80 80" version="1.1" xmlns="http://www.w3.org/2000/svg"
     xmlns:sketch="http://www.bohemiancoding.com/sketch/ns">
    <!-- Generator: Sketch 3.4 (15588) - http://www.bohemiancoding.com/sketch -->
    <title>engineer</title>
    <desc>Created with Sketch.</desc>
    <defs></defs>
    <g id="Page-1" stroke="none" stroke-width="1" fill="none" fill-rule="evenodd" sketch:type="MSPage">
        <g id="engineer" sketch:type="MSArtboardGroup" fill="#000000">
            <g id="jobs-13" sketch:type="MSLayerGroup" transform="translate(7.000000, 6.000000)">
                <g id="Layer_1" sketch:type="MSShapeGroup">
                    <g id="Group">
                        <path
                                d="M20.4,69 L20.1,69 L14.9,68 C14.1,67.8 13.6,67 13.7,66.2 L14.1,64 C12.7,63.3 11,62.2 9.6,61 L7.4,62.4 C6.7,62.8 5.8,62.7 5.3,62 L2.3,57.5 C1.8,56.8 2,55.9 2.7,55.4 L5,53.9 C4.5,52.3 4.1,50.5 4.1,48.6 L1.8,48.1 C1.4,48 1.1,47.8 0.8,47.5 C0.6,47.2 0.5,46.8 0.6,46.4 L1.6,41.2 C1.8,40.4 2.6,39.9 3.4,40 L5.8,40.5 C6.6,38.9 7.6,37.4 8.7,36.2 L7.1,33.8 C6.6,33.1 6.8,32.2 7.5,31.7 L12,28.7 C12.7,28.2 13.6,28.4 14.1,29.1 L15.7,31.5 C17.2,31 19,30.7 20.8,30.6 L21.3,28 C21.5,27.2 22.3,26.7 23.1,26.8 L28.3,27.8 C29.1,28 29.6,28.8 29.5,29.6 L29,32.3 C30.6,33.1 32.1,34.1 33.3,35.1 L35.7,33.5 C36.4,33.1 37.3,33.2 37.8,33.9 L40.8,38.4 C41.3,39.1 41.1,40 40.4,40.5 L38,42.1 C38.5,43.7 38.9,45.5 39,47.2 L41.4,47.7 C41.8,47.8 42.1,48 42.4,48.3 C42.6,48.6 42.7,49 42.6,49.4 L41.6,54.6 C41.4,55.4 40.6,55.9 39.8,55.8 L37.5,55.3 C36.7,57 35.7,58.5 34.6,59.8 L36,62 C36.4,62.7 36.3,63.6 35.6,64.1 L31.1,67.1 C30.4,67.6 29.5,67.4 29,66.7 L27.6,64.6 C26,65.2 24.1,65.5 22.3,65.6 L21.9,67.8 C21.8,68.2 21.6,68.5 21.3,68.8 C21,68.9 20.7,69 20.4,69 L20.4,69 Z M17,65.3 L19.2,65.7 L19.6,63.8 C19.7,63.1 20.4,62.6 21.1,62.6 L21.1,62.6 C22.9,62.6 25.5,62.3 27.6,61.3 C28.3,61 29.1,61.2 29.5,61.8 L30.8,63.7 L32.9,62.3 L31.6,60.3 C31.2,59.7 31.3,58.9 31.8,58.4 C33.4,56.8 34.7,54.5 35.4,52.9 C35.7,52.2 36.4,51.8 37.1,52 L39.1,52.4 L39.5,50.2 L37.4,49.8 C36.7,49.7 36.2,49 36.2,48.3 C36.2,46.1 35.7,43.7 34.9,42 C34.6,41.3 34.8,40.5 35.4,40.1 L37.5,38.7 L36.1,36.7 L34,38.3 C33.4,38.7 32.6,38.6 32.1,38.1 C30.8,36.7 28.8,35.4 26.8,34.6 C26.1,34.3 25.8,33.6 25.9,32.9 L26.4,30.6 L24.2,30.2 L23.7,32.5 C23.6,33.2 22.9,33.7 22.2,33.7 C20,33.7 17.7,34.1 15.9,34.9 C15.2,35.2 14.5,35 14.1,34.4 L12.7,32.2 L10.7,33.6 L12.1,35.7 C12.5,36.3 12.4,37.1 11.9,37.6 C10.5,38.9 9.1,40.9 8.3,42.9 C8,43.6 7.3,43.9 6.6,43.8 L4.5,43.4 L4.1,45.6 L6.1,46 C6.8,46.1 7.3,46.8 7.3,47.5 C7.3,49.3 7.6,51.9 8.5,54 C8.8,54.7 8.6,55.4 8,55.8 L5.8,57 L7.2,59.1 L9.1,57.8 C9.7,57.4 10.5,57.5 11,58 C12.6,59.7 14.9,61 16.5,61.7 C17.2,62 17.5,62.7 17.4,63.4 L17,65.3 L17,65.3 Z"
                                id="Shape"></path>
                        <path
                                d="M21.5,55.7 C21,55.7 20.5,55.6 19.9,55.5 C15.7,54.6 12.9,50.5 13.8,46.3 C14.7,42.1 18.8,39.3 23,40.2 C25.1,40.6 26.8,41.8 28,43.5 C29.2,45.2 29.6,47.3 29.2,49.4 L29.2,49.4 C28.8,51.5 27.6,53.2 25.9,54.4 C24.5,55.3 23,55.7 21.5,55.7 L21.5,55.7 Z M21.4,43 C19.1,43 17.1,44.6 16.7,46.9 C16.2,49.5 17.9,52.1 20.5,52.6 C21.8,52.9 23.1,52.6 24.1,51.9 C25.2,51.2 25.9,50.1 26.2,48.8 L26.2,48.8 C26.5,47.5 26.2,46.2 25.5,45.2 C24.8,44.1 23.7,43.4 22.4,43.1 C22.1,43.1 21.8,43 21.4,43 L21.4,43 Z"
                                id="Shape"></path>
                        <path
                                d="M46.9,36 L46.6,36 L42.4,35.2 C41.6,35 41.1,34.2 41.2,33.4 L41.5,31.8 C40.3,31.2 39.1,30.4 38.1,29.5 L36.5,30.5 C35.8,30.9 34.9,30.8 34.4,30.1 L32,26.4 C31.5,25.7 31.7,24.8 32.4,24.3 L34,23.2 C33.6,22 33.4,20.6 33.3,19.2 L31.6,18.9 C31.2,18.8 30.9,18.6 30.6,18.3 C30.4,18 30.3,17.6 30.4,17.2 L31.2,13 C31.3,12.6 31.5,12.3 31.8,12 C32.1,11.8 32.5,11.7 32.9,11.8 L34.7,12.2 C35.3,11 36.1,9.9 36.9,9 L35.7,7.2 C35.2,6.5 35.4,5.6 36.1,5.1 L40,2.6 C40.7,2.1 41.6,2.3 42.1,3 L43.3,4.8 C44.5,4.4 45.8,4.2 47.1,4.1 L47.5,2.2 C47.6,1.8 47.8,1.5 48.1,1.2 C48.4,0.9 48.9,1 49.3,1 L53.5,1.8 C53.9,1.9 54.2,2.1 54.5,2.4 C54.7,2.7 54.8,3.1 54.7,3.5 L54.3,5.4 C55.5,6 56.6,6.7 57.5,7.5 L59.3,6.3 C60,6 60.9,6.2 61.4,6.9 L63.9,10.6 C64.4,11.3 64.2,12.2 63.5,12.7 L61.8,13.9 C62.2,15.1 62.5,16.4 62.6,17.7 L64.4,18.1 C64.8,18.2 65.1,18.4 65.4,18.7 C65.6,19 65.7,19.4 65.6,19.8 L64.5,24 C64.4,24.4 64.2,24.7 63.9,25 C63.6,25.2 63.2,25.3 62.8,25.2 L61.1,24.9 C60.5,26.1 59.7,27.3 58.9,28.3 L60,29.9 C60.4,30.6 60.3,31.5 59.6,32 L55.9,34.5 C55.2,35 54.3,34.8 53.8,34.1 L52.8,32.5 C51.6,32.9 50.2,33.2 48.8,33.3 L48.5,34.9 C48.4,35.3 48.2,35.6 47.9,35.9 C47.5,35.9 47.2,36 46.9,36 L46.9,36 Z M44.5,32.5 L45.8,32.8 L46.1,31.4 C46.2,30.7 46.9,30.1 47.6,30.1 L47.6,30.1 C49,30.1 51.1,30 52.8,29.2 C53.5,28.9 54.3,29.2 54.7,29.8 L55.6,31.2 L56.8,30.4 L55.9,29 C55.5,28.4 55.6,27.6 56.1,27.1 C57.4,25.8 58.4,24 59,22.7 C59.3,22 60,21.6 60.7,21.8 L62.1,22.1 L62.4,20.8 L61,20.5 C60.3,20.4 59.8,19.7 59.8,19 C59.8,17.3 59.4,15.3 58.8,14 C58.5,13.3 58.7,12.5 59.3,12.1 L60.8,11.1 L60,9.9 L58.4,10.9 C57.8,11.3 57,11.2 56.5,10.7 C55.5,9.6 53.9,8.6 52.2,7.9 C51.5,7.6 51.2,6.9 51.3,6.2 L51.6,4.6 L50.3,4.3 L50,5.9 C49.9,6.6 49.3,7.1 48.5,7.1 C46.7,7.1 44.9,7.4 43.5,8 C42.8,8.3 42.1,8.1 41.7,7.5 L40.7,6 L39.5,6.8 L40.5,8.3 C40.9,8.9 40.8,9.7 40.3,10.2 C39.2,11.2 38.1,12.9 37.4,14.5 C37.1,15.2 36.4,15.5 35.7,15.4 L34,15 L33.7,16.3 L35.1,16.6 C35.8,16.7 36.3,17.4 36.3,18.1 C36.3,19.5 36.5,21.6 37.2,23.3 C37.5,24 37.3,24.7 36.7,25.1 L35.3,26 L36.1,27.2 L37.4,26.3 C38,25.9 38.8,26 39.3,26.5 C40.3,27.6 42.1,28.8 43.7,29.5 C44.4,29.8 44.7,30.5 44.6,31.2 L44.5,32.5 L44.5,32.5 Z"
                                id="Shape"></path>
                        <path
                                d="M47.8,25.1 C47.4,25.1 46.9,25.1 46.5,25 C42.9,24.3 40.5,20.7 41.3,17.1 C42,13.5 45.6,11.1 49.2,11.9 C52.8,12.6 55.2,16.2 54.4,19.8 C53.7,22.9 50.9,25.1 47.8,25.1 L47.8,25.1 Z M47.8,14.8 C46.1,14.8 44.5,16 44.2,17.8 C43.8,19.8 45.1,21.7 47.1,22.1 C49.1,22.5 51,21.2 51.4,19.2 C51.8,17.2 50.5,15.3 48.5,14.9 C48.2,14.8 48,14.8 47.8,14.8 L47.8,14.8 Z"
                                id="Shape"></path>
                    </g>
                </g>
            </g>
        </g>
    </g>
</svg>
