<?xml version="1.0" encoding="UTF-8" standalone="no"?>
<svg width="80px" height="80px" viewBox="0 0 80 80" version="1.1" xmlns="http://www.w3.org/2000/svg"
     xmlns:sketch="http://www.bohemiancoding.com/sketch/ns">
    <!-- Generator: Sketch 3.4.4 (17249) - http://www.bohemiancoding.com/sketch -->
    <title>edit</title>
    <desc>Created with Sketch.</desc>
    <defs></defs>
    <g id="Page-1" stroke="none" stroke-width="1" fill="none" fill-rule="evenodd" sketch:type="MSPage">
        <g id="edit" sketch:type="MSArtboardGroup" fill="#000000">
            <g id="homes2-09" sketch:type="MSLayerGroup" transform="translate(6.000000, 6.000000)">
                <g id="Layer_1" sketch:type="MSShapeGroup">
                    <path
                            d="M67.2,8.7 L60.8,2.3 C58,-0.5 53.5,-0.5 50.7,2.3 L4,48.9 L4,48.9 C3.9,49 3.8,49.2 3.7,49.4 L3.7,49.4 C3.7,49.5 3.6,49.6 3.6,49.7 L1,66.1 C0.9,66.6 1.1,67.1 1.4,67.4 C1.7,67.7 2.1,67.8 2.5,67.8 L2.7,67.8 L19.1,65.2 L19.1,65.2 L19.3,65.2 L19.4,65.2 C19.4,65.2 19.5,65.2 19.5,65.1 C19.5,65.1 19.6,65.1 19.6,65 C19.6,65 19.7,65 19.7,64.9 L19.8,64.8 L19.8,64.8 L67,17.6 C69.6,15.1 69.6,11.2 67.2,8.7 L67.2,8.7 Z M47.3,9.8 L59,21.5 L18.9,61.6 L7.2,49.9 L47.3,9.8 L47.3,9.8 Z M6.1,53.1 L15.7,62.7 L4.3,64.5 L6.1,53.1 L6.1,53.1 Z M65,15.5 L61.1,19.4 L49.4,7.7 L52.7,4.4 C54.3,2.8 57,2.8 58.6,4.4 L65,10.8 C66.3,12.1 66.3,14.2 65,15.5 L65,15.5 Z"
                            id="Shape"></path>
                </g>
            </g>
        </g>
    </g>
</svg>
