<?xml version="1.0" encoding="UTF-8" standalone="no"?>
<svg width="72px" height="72px" viewBox="0 0 72 72" version="1.1" xmlns="http://www.w3.org/2000/svg"
     xmlns:sketch="http://www.bohemiancoding.com/sketch/ns">
    <!-- Generator: Sketch 3.4.2 (15857) - http://www.bohemiancoding.com/sketch -->
    <title>hamburger</title>
    <desc>Created with Sketch.</desc>
    <defs></defs>
    <g id="Page-1" stroke="none" stroke-width="1" fill="none" fill-rule="evenodd" sketch:type="MSPage">
        <g id="hamburger" sketch:type="MSArtboardGroup" fill="#000000">
            <g id="icon_Artboard-35-copy-8" sketch:type="MSLayerGroup" transform="translate(3.000000, 12.000000)">
                <g id="Layer_1" sketch:type="MSShapeGroup">
                    <g id="Group">
                        <path
                                d="M64.5,3.7 L1.5,3.7 C0.7,3.7 0,3 0,2.2 C0,1.4 0.7,0.7 1.5,0.7 L64.5,0.7 C65.3,0.7 66,1.4 66,2.2 C66,3 65.3,3.7 64.5,3.7 L64.5,3.7 Z"
                                id="Shape"></path>
                        <path
                                d="M64.5,25.5 L1.5,25.5 C0.7,25.5 0,24.8 0,24 C0,23.2 0.7,22.5 1.5,22.5 L64.5,22.5 C65.3,22.5 66,23.2 66,24 C66,24.8 65.3,25.5 64.5,25.5 L64.5,25.5 Z"
                                id="Shape"></path>
                        <path
                                d="M64.5,47.3 L1.5,47.3 C0.7,47.3 0,46.6 0,45.8 C0,45 0.7,44.3 1.5,44.3 L64.5,44.3 C65.3,44.3 66,45 66,45.8 C66,46.6 65.3,47.3 64.5,47.3 L64.5,47.3 Z"
                                id="Shape"></path>
                    </g>
                </g>
            </g>
        </g>
    </g>
</svg>
