<?xml version="1.0" encoding="utf-8"?>
<!-- Generator: Adobe Illustrator 19.1.0, SVG Export Plug-In . SVG Version: 6.00 Build 0)  -->
<svg version="1.1" id="Layer_1" xmlns="http://www.w3.org/2000/svg"  x="0px" y="0px"
	 width="72px" height="72px" viewBox="0 0 72 72" enable-background="new 0 0 72 72" xml:space="preserve">
<g>
	<path d="M59.7,70c-0.6,0-1.1-0.3-1.4-0.9l-3-7c0,0,0,0,0,0H17.6l-3,7.1c-0.3,0.8-1.2,1.1-2,0.8c-0.8-0.3-1.1-1.2-0.8-2l3.2-7.7
		L5,35.9c-0.3-0.8,0-1.6,0.8-2c0.8-0.3,1.6,0,2,0.8L12.8,47h18c0.6,0,1.1,0.3,1.3,0.8l5.4,10.9c0,0.1,0.1,0.1,0.1,0.2h1.6
		c0,0,0-0.1,0-0.1l0-29c-1.5-1.8-4-2.9-5.1-2.8c-1.7,0.1-2.9,0.7-3.8,1.9c-0.1,0.1-0.1,0.2-0.2,0.3c-0.6,1-1.3,1.3-1.9,1.3
		c-0.5,0-1.3-0.2-1.9-1.2c-0.5-0.8-1-1.3-1.6-1.7c-2.1-1.3-4.7-1-6.4,0.7l-0.2,0.2c-0.7,0.7-1.6,0.9-2.5,0.5
		c-0.9-0.4-1.3-1.3-1.1-2.3l0-0.2c0.1-0.5,0.2-1,0.3-1.5c2-8.3,6.9-14.4,14.5-18.2c2.5-1.2,5.3-2,8.4-2.4c0-0.1,0-0.1,0-0.2
		c0.3-1.4,1.6-2.4,3-2.3c1.4,0.1,2.5,1.1,2.7,2.5c2.3,0.2,4.3,0.7,6.1,1.4C59,9.5,64.8,16.3,66.8,26c0,0.2,0.1,0.3,0.1,0.5l0,0.2
		c0.2,1-0.2,1.9-1.1,2.3c-0.8,0.5-1.8,0.3-2.5-0.4c-0.8-0.8-1.5-1.2-2.2-1.4c-2.3-0.8-4.8,0.2-6,2.2c-0.6,1-1.4,1.2-1.9,1.2
		c-0.4,0-1.2-0.2-1.9-1.2c-0.7-1.1-2-1.8-3.7-1.9c-2.1-0.1-4.2,0.8-5.5,2.3l0,29.1c0,0,0,0.1,0,0.1H64c0.8,0,1.5,0.7,1.5,1.5
		S64.8,62,64,62h-5.4l2.5,5.9c0.3,0.8,0,1.6-0.8,2C60.1,70,59.9,70,59.7,70z M17.9,59h16.4l-4.5-9H14.1l3.7,8.8
		C17.8,58.9,17.9,58.9,17.9,59z M34.3,24.1c2,0,4.6,1.3,6.5,3c1.9-1.7,4.5-2.7,7.1-2.6c2.2,0.1,4.1,0.9,5.4,2.4
		c2.1-2.6,5.7-3.6,8.9-2.5c0.5,0.2,0.9,0.4,1.3,0.6c-2.1-7.8-7-13.1-14.9-16.2c-1.8-0.7-3.8-1.1-6.1-1.3c-0.9-0.1-1.5-0.6-1.7-1.3
		c-0.3,1-1.1,1.3-1.8,1.4c-3,0.2-5.7,1-8.2,2.2c-6.7,3.3-10.8,8.3-12.7,15.3c2.6-1.4,5.8-1.4,8.4,0.2c0.7,0.4,1.3,1,1.9,1.7
		c1.4-1.7,3.3-2.6,5.7-2.8C34.1,24.1,34.2,24.1,34.3,24.1z"/>
</g>
</svg>
