<?xml version="1.0" encoding="UTF-8" standalone="no"?>
<svg width="72px" height="72px" viewBox="0 0 72 72" version="1.1" xmlns="http://www.w3.org/2000/svg"
     xmlns:sketch="http://www.bohemiancoding.com/sketch/ns">
    <!-- Generator: Sketch 3.3.3 (12081) - http://www.bohemiancoding.com/sketch -->
    <title>location</title>
    <desc>Created with Sketch.</desc>
    <defs></defs>
    <g id="Page-1" stroke="none" stroke-width="1" fill="none" fill-rule="evenodd" sketch:type="MSPage">
        <g id="location" sketch:type="MSArtboardGroup" fill="#000000">
            <g id="icon-26" sketch:type="MSLayerGroup" transform="translate(10.000000, 2.000000)">
                <path
                        d="M25.6231884,68 L25.6231884,68 C24.2434783,68 22.8637681,67.4086957 21.8782609,66.3246377 C16.0637681,59.9188406 11.3333333,53.4144928 7.48985507,46.7130435 C4.82898551,42.0811594 2.95652174,37.7449275 1.77391304,33.5072464 C0.0985507246,27.2985507 0.394202899,21.484058 2.66086957,16.2608696 C6.11014493,8.27826087 12.1217391,3.35072464 20.3014493,1.57681159 C29.2695652,-0.394202899 37.1536232,2.06956522 43.657971,8.77101449 C48.0927536,13.3043478 50.457971,18.9217391 50.5565217,25.2289855 L50.5565217,25.2289855 C50.5565217,29.1710145 49.8666667,32.915942 48.2898551,37.1536232 C46.6144928,41.5884058 44.3478261,46.0231884 41.0956522,51.0492754 C37.6463768,56.3710145 33.7043478,61.4956522 29.3681159,66.3246377 C28.3826087,67.4086957 27.0028986,68 25.6231884,68 L25.6231884,68 Z M26.115942,3.94202899 C24.4405797,3.94202899 22.7652174,4.13913043 20.9913043,4.53333333 C13.6985507,6.11014493 8.47536232,10.4463768 5.42028986,17.4434783 C3.35072464,22.0753623 3.15362319,27.1014493 4.73043478,32.7188406 C5.81449275,36.6608696 7.5884058,40.8 10.1507246,45.2347826 C13.8956522,51.8376812 18.5275362,58.0463768 24.2434783,64.3536232 C24.6376812,64.8463768 25.2289855,65.0434783 25.7217391,65.0434783 L25.7217391,65.0434783 C26.3130435,65.0434783 26.8057971,64.7478261 27.2985507,64.3536232 C31.5362319,59.7217391 35.3797101,54.6956522 38.7304348,49.4724638 C41.884058,44.6434783 44.0521739,40.4057971 45.6289855,36.1681159 C47.1072464,32.226087 47.6985507,28.8753623 47.6985507,25.3275362 C47.5014493,19.8086957 45.4318841,14.7826087 41.5884058,10.8405797 C37.0550725,6.20869565 31.9304348,3.94202899 26.115942,3.94202899 L26.115942,3.94202899 Z M25.7217391,35.9710145 C22.7652174,35.9710145 20.1043478,34.8869565 18.0347826,32.8173913 C15.9652174,30.7478261 14.8811594,28.0869565 14.8811594,25.2289855 C14.8811594,19.315942 19.7101449,14.4869565 25.6231884,14.4869565 L25.7217391,14.4869565 C28.5797101,14.4869565 31.2405797,15.5710145 33.3101449,17.542029 C35.3797101,19.6115942 36.4637681,22.2724638 36.4637681,25.2289855 L36.4637681,25.2289855 C36.4637681,28.0869565 35.3797101,30.7478261 33.3101449,32.7188406 C31.2405797,34.8869565 28.5797101,35.9710145 25.7217391,35.9710145 L25.7217391,35.9710145 L25.7217391,35.9710145 Z M25.6231884,17.4434783 L25.6231884,17.4434783 C21.2869565,17.4434783 17.8376812,20.9913043 17.8376812,25.2289855 C17.8376812,27.2985507 18.626087,29.2695652 20.1043478,30.7478261 C21.5826087,32.226087 23.5536232,33.0144928 25.7217391,33.0144928 L25.7217391,33.0144928 C27.7913043,33.0144928 29.6637681,32.226087 31.142029,30.7478261 C32.6202899,29.2695652 33.4086957,27.2985507 33.4086957,25.3275362 L33.4086957,25.3275362 C33.4086957,23.1594203 32.6202899,21.1884058 31.0434783,19.7101449 C29.6637681,18.2318841 27.6927536,17.4434783 25.6231884,17.4434783 L25.6231884,17.4434783 Z"
                        id="Shape" sketch:type="MSShapeGroup"></path>
            </g>
        </g>
    </g>
</svg>
