<?xml version="1.0" encoding="utf-8"?>
<!-- Generator: Adobe Illustrator 19.2.0, SVG Export Plug-In . SVG Version: 6.00 Build 0)  -->
<svg version="1.1" id="Layer_1" xmlns="http://www.w3.org/2000/svg"  x="0px" y="0px"
	 width="72px" height="72px" viewBox="0 0 72 72" enable-background="new 0 0 72 72" xml:space="preserve">
<g>
	<path d="M35.8,58.9c-5.8,0-12.4-1.2-19.1-4.7c-0.4-0.2-0.7-0.6-0.8-1.1c0-0.3-0.8-4.7,0.6-8.3c-3.9,0.4-8.7-0.1-13.6-2.6
		c-0.4-0.2-0.7-0.6-0.8-1.1c-0.1-0.6-0.8-5.5,2.2-7.5c0.1,0,0.1-0.1,0.2-0.1c0.5-0.2,2.7-1.2,4.2-1.8c-0.2-0.4-0.4-0.9-0.6-1.5
		C8,30.1,7.9,30,7.8,29.9C6.4,29,6.4,27,6.4,26.2c0-0.3,0.1-1.3,0.8-2c-0.1-1.9,0.6-4.5,3.7-6.5c1.5-1,5-1.9,7.7,1.2
		c1.1,0.4,2.3,1.5,2.2,3.5c0,0.7,0.1,1.5,0,2.3c0,0,0,0,0,0c0.5,0.4,0.8,1,0.8,1.8c0,0.1,0,0.1,0,0.2c-0.1,0.8-0.6,2.9-1.9,3.6
		c-0.1,0-0.1,0.1-0.2,0.1c-0.1,0.4-0.3,0.9-0.6,1.3c1.3,0.5,3.6,1.5,4.6,2.1c1.3,0.7,2.3,2.5,2.7,4.3c0.7-0.3,1.4-0.5,1.9-0.7
		c-0.4-0.6-1.4-2.3-1.8-4.2c-0.4-0.1-0.7-0.2-1-0.4c-1.3-0.9-1.9-2.7-1.9-5.5c0-0.4,0-1.8,1.1-2.7c0.1-0.1,0.3-0.2,0.4-0.3
		c-0.4-3,0.5-7.6,6-11.1c2.4-1.5,7.9-3,12.2,2.1c1.5,0.4,3.5,1.9,3.4,5.3c0.1,1,0.1,2.8-0.1,4.3c0.2,0.1,0.4,0.2,0.5,0.3
		c0.5,0.4,1,1.2,0.9,2.6c-0.2,1.1-0.8,4.5-2.8,5.5c-0.2,0.1-0.5,0.2-0.7,0.3c-0.3,1-0.8,2.5-1.8,3.8c0.4,0.2,1.7,0.7,3.1,1.3
		c0.1-1.7,0.5-3.9,2.4-5.1c0.1,0,0.1-0.1,0.2-0.1c0.5-0.2,2.7-1.2,4.2-1.8c-0.2-0.4-0.4-0.9-0.6-1.5c-0.1-0.1-0.3-0.1-0.4-0.2
		c-1.4-0.9-1.4-2.9-1.4-3.7c0-0.3,0.1-1.3,0.8-2c-0.1-1.9,0.6-4.5,3.7-6.5c1.5-1,5-1.9,7.7,1.2c1.1,0.4,2.3,1.5,2.2,3.5
		c0,0.7,0.1,1.5,0,2.2c0.3,0.3,0.8,0.8,0.7,1.8c0,0.1,0,0.1,0,0.2c-0.1,0.8-0.6,2.9-1.9,3.6c-0.1,0-0.1,0.1-0.2,0.1
		c-0.1,0.4-0.3,0.9-0.6,1.3c1.3,0.5,3.6,1.5,4.6,2.1c2.1,1.2,3.3,5.3,3,7.2c-0.1,0.5-0.4,0.8-0.8,1.1c-0.3,0.2-6.7,3.6-14.8,2.6
		c1.5,2.7,2.3,6.3,1.9,8.4c-0.1,0.5-0.4,0.8-0.8,1.1C55.3,54.4,47.1,58.9,35.8,58.9z M33.2,55.7c1.7,0.1,3.4,0.1,5,0
		c-0.6-1.8-1.7-4.7-2.7-7C34.9,50.2,33.9,53.2,33.2,55.7z M43.2,40.9l-1.5,14.5c5.9-0.9,10.3-2.7,12-3.5c0-2.4-1.5-6.7-3.3-7.8
		C49,43.3,45.4,41.8,43.2,40.9z M18.8,51.9c3.7,1.9,7.4,2.9,10.9,3.5l-2-14.6c-0.4,0.1-0.7,0.3-1.1,0.5c-0.1,0.4-0.4,0.7-0.7,0.9
		c-0.2,0.1-2.2,1.2-5.4,2C18.4,46,18.6,50.2,18.8,51.9z M38.2,47.4c0.3,0.7,0.7,1.6,1.1,2.6l1.1-10.3c-0.7,0.5-1.6,0.9-2.5,1.1
		c-0.6,0.2-4.1,1.1-7.3-1.1l1.4,10.1c0.3-0.9,0.6-1.7,0.9-2.3c-0.7-0.8-1.6-2.3-1.5-4.1c0-0.5,0.3-1,0.8-1.2c0.1-0.1,3.7-2,7,0
		c0.4,0.3,0.7,0.8,0.7,1.3C39.8,44.4,39.4,46,38.2,47.4z M34.4,44.5c0.3,0.7,0.8,1.2,1,1.4c0,0,0.1,0,0.1-0.1c0.6-0.4,0.9-1,1.1-1.4
		C35.8,44.2,35,44.3,34.4,44.5z M56.6,41.8c0.6,0,1.3,0,1.9,0c-0.3-1.7-0.8-4.3-0.8-4.4c-0.1-0.6,0.1-1.1,0.6-1.5
		c0.1-0.1,0.2-0.4,0.3-0.7c-0.5,0-1.1,0-1.7,0.1c0.2,0.4,0.3,0.8,0.5,1.1c0.3,0.5,0.3,1.1,0,1.6C57.2,38.4,56.9,40.1,56.6,41.8z
		 M12.9,41.8c0.6,0,1.3,0,1.9,0c-0.3-1.7-0.8-4.3-0.8-4.4c-0.1-0.6,0.1-1.1,0.6-1.5c0.1-0.1,0.2-0.4,0.3-0.7c-0.5,0-1.1,0-1.7,0.1
		c0.2,0.4,0.3,0.8,0.5,1.1c0.3,0.5,0.3,1.1,0,1.6C13.5,38.4,13.2,40.1,12.9,41.8z M60.8,37.6c0.2,1,0.5,2.7,0.7,3.9
		c2.7-0.4,4.7-1.2,5.8-1.7c-0.1-1.2-0.9-3.1-1.5-3.4c-0.7-0.4-2.7-1.2-4-1.8C61.7,35.3,61.5,36.6,60.8,37.6z M17,37.6
		c0.2,1,0.5,2.7,0.7,3.9c0.4-0.1,0.9-0.2,1.3-0.2c0.1-0.1,0.2-0.1,0.3-0.2c0.1,0,0.1-0.1,0.2-0.1c0.4-0.2,2.1-0.9,3.9-1.7
		c-0.3-1.2-0.9-2.5-1.4-2.9c-0.7-0.4-2.7-1.2-4-1.8C18,35.3,17.8,36.6,17,37.6z M48.8,39.8c1.7,0.8,3.3,1.3,4.9,1.6
		c0.2-1.4,0.5-3,0.8-4.1c-0.4-0.7-0.8-1.8-0.9-2.9c-1,0.4-2.7,1.1-3.9,1.7C48.8,36.8,48.7,38.6,48.8,39.8z M5,39.8
		c1.7,0.8,3.3,1.3,4.9,1.6c0.2-1.4,0.5-3,0.8-4.1c-0.4-0.7-0.8-1.8-0.9-2.9c-1,0.4-2.7,1.1-3.9,1.7C5.1,36.8,5,38.6,5,39.8z
		 M27.7,30.1c0.3,0,0.6,0.1,0.8,0.2c0.4,0.3,0.7,0.8,0.7,1.3c0,2.1,1.5,4.2,1.5,4.2c2.6,3.3,6.2,2.1,6.3,2.1c0.1,0,0.1,0,0.2,0
		c3.7-0.8,4.6-6,4.6-6c0.1-0.5,0.4-0.9,0.8-1.1c0.4-0.2,0.8-0.2,1.2-0.1c0.4-0.4,0.9-1.7,1.1-2.9c-0.6,0.1-1.2-0.1-1.5-0.6
		c-0.4-0.5-0.4-1.2,0-1.8c0.3-0.5,0.4-2.7,0.3-4.7c0-0.1,0-0.1,0-0.2c0.1-2.2-1.3-2.4-1.4-2.4c-0.4,0-0.8-0.2-1-0.6
		c-3.7-4.7-8.1-2.1-8.6-1.8c-6.3,4-4.4,9-4.4,9.2c0.2,0.5,0.1,1.1-0.2,1.5c-0.4,0.4-0.9,0.6-1.5,0.5c0,0-0.2,0-0.3,0
		c0,0.1-0.2,0.2-0.2,0.2c0,0,0,0.1,0,0.1c0,2.1,0.6,2.8,0.7,2.9c0,0,0.2,0,0.2,0C27.2,30.1,27.5,30.1,27.7,30.1z M53.2,27
		c0.3,0,0.6,0.2,0.8,0.4c0.4,0.3,0.7,0.8,0.7,1.3c0,0.8,0.5,1.8,0.7,2.1c1.1,1.4,2.7,1,2.8,0.9c0,0,0.1,0,0.2,0
		c1.6-0.3,2.1-2.9,2.1-2.9c0.1-0.5,0.4-0.8,0.8-1.1c0.2-0.1,0.4-0.2,0.7-0.2c0.1-0.1,0.1-0.3,0.2-0.4c-0.2-0.1-0.4-0.3-0.6-0.5
		c-0.4-0.5-0.4-1.2,0-1.7c0.1-0.3,0.2-1.4,0.1-2.3c0-0.1,0-0.1,0-0.2c0-0.6-0.2-0.7-0.2-0.7c-0.4,0-0.8-0.2-1-0.6
		c-1.7-2.2-3.7-1.1-4-0.9c-3.2,2-2.2,4.4-2.2,4.4c0.2,0.5,0.1,1.1-0.2,1.5c-0.2,0.2-0.4,0.3-0.7,0.4C53.1,26.8,53.2,27,53.2,27
		C53.2,27,53.2,27,53.2,27z M9.5,27c0.3,0,0.6,0.2,0.8,0.4c0.4,0.3,0.7,0.8,0.7,1.3c0,0.8,0.5,1.8,0.7,2.1c1.1,1.4,2.7,1,2.8,0.9
		c0,0,0.1,0,0.2,0c1.6-0.3,2.1-2.9,2.1-2.9c0.1-0.5,0.4-0.8,0.8-1.1c0.2-0.1,0.4-0.2,0.7-0.2c0-0.1,0.1-0.2,0.1-0.3
		c-0.3-0.1-0.5-0.3-0.7-0.6c-0.3-0.5-0.3-1.2,0.1-1.7c0.1-0.3,0.2-1.4,0.1-2.3c0-0.1,0-0.1,0-0.2c0-0.6-0.2-0.7-0.3-0.7
		c-0.4,0-0.7-0.2-1-0.6C15,19,13,20,12.6,20.3c-3.2,2-2.2,4.4-2.2,4.4c0.2,0.5,0.1,1.1-0.2,1.5c-0.2,0.2-0.4,0.3-0.7,0.4
		C9.4,26.8,9.4,27,9.5,27C9.5,27,9.5,27,9.5,27z M53.3,28L53.3,28L53.3,28z M9.6,28L9.6,28L9.6,28z M61.5,24.9L61.5,24.9L61.5,24.9z
		 M62,24.8C62,24.8,62,24.8,62,24.8C62,24.8,62,24.8,62,24.8z M17.9,24.8C17.9,24.8,17.9,24.8,17.9,24.8
		C17.9,24.8,17.9,24.8,17.9,24.8z"/>
</g>
</svg>
