<?xml version="1.0" encoding="UTF-8" standalone="no"?>
<svg width="80px" height="80px" viewBox="0 0 80 80" version="1.1" xmlns="http://www.w3.org/2000/svg"
     xmlns:sketch="http://www.bohemiancoding.com/sketch/ns">
    <!-- Generator: Sketch 3.3.3 (12081) - http://www.bohemiancoding.com/sketch -->
    <title>ads_posted</title>
    <desc>Created with Sketch.</desc>
    <defs></defs>
    <g id="Page-1" stroke="none" stroke-width="1" fill="none" fill-rule="evenodd" sketch:type="MSPage">
        <g id="ads_posted" sketch:type="MSArtboardGroup" fill="#000000">
            <g id="icon-14" sketch:type="MSLayerGroup" transform="translate(1.000000, 15.000000)">
                <g id="Group" sketch:type="MSShapeGroup">
                    <path
                            d="M75.9259259,20 L64.3518519,20 C63.5185185,20 62.7777778,20.7407407 62.7777778,21.5740741 C62.7777778,22.3148148 63.4259259,23.1481481 64.3518519,23.1481481 L75.9259259,23.1481481 C76.8518519,23.1481481 77.5,22.3148148 77.5,21.5740741 C77.5,20.8333333 76.8518519,20 75.9259259,20 L75.9259259,20 Z"
                            id="Shape"></path>
                    <path
                            d="M57.8703704,12.5 C58.3333333,12.5 58.7037037,12.3148148 58.9814815,12.037037 L67.7777778,3.51851852 C68.4259259,2.87037037 68.4259259,1.85185185 67.7777778,1.2037037 C67.1296296,0.555555556 66.1111111,0.555555556 65.462963,1.2037037 L56.6666667,9.72222222 C56.0185185,10.3703704 56.0185185,11.3888889 56.5740741,11.9444444 C56.8518519,12.3148148 57.3148148,12.5 57.8703704,12.5 L57.8703704,12.5 Z"
                            id="Shape"></path>
                    <path
                            d="M58.9814815,32.1296296 C58.3333333,31.4814815 57.3148148,31.4814815 56.6666667,32.1296296 C56.0185185,32.7777778 56.0185185,33.7962963 56.6666667,34.4444444 L65.462963,42.962963 C65.8333333,43.3333333 66.2037037,43.4259259 66.6666667,43.4259259 C67.2222222,43.4259259 67.6851852,43.2407407 67.8703704,42.962963 C68.5185185,42.3148148 68.5185185,41.2962963 67.8703704,40.6481481 L58.9814815,32.1296296 L58.9814815,32.1296296 Z"
                            id="Shape"></path>
                    <path
                            d="M50.0925926,1.01851852 C48.9814815,0.462962963 47.962963,1.2037037 46.9444444,1.94444444 L46.8518519,1.94444444 C46.6666667,2.03703704 46.3888889,2.12962963 46.2962963,2.22222222 C32.6851852,11.6666667 20,12.7777778 19.9074074,12.7777778 L11.3888889,12.7777778 C5.46296296,12.7777778 0.555555556,17.3148148 0.277777778,23.1481481 C0.0925925926,26.1111111 1.2037037,29.0740741 3.24074074,31.2962963 C4.81481481,33.0555556 6.94444444,34.1666667 9.44444444,34.537037 L9.44444444,46.8518519 C9.44444444,48.1481481 10.6481481,49.3518519 11.9444444,49.3518519 L18.8888889,49.3518519 C20.1851852,49.3518519 21.4814815,48.1481481 21.4814815,46.8518519 L21.4814815,34.7222222 C25.5555556,34.7222222 37.5,35.2777778 46.2962963,42.6851852 L46.4814815,42.7777778 C46.9444444,43.1481481 47.5925926,43.3333333 48.2407407,43.3333333 C48.7962963,43.3333333 49.2592593,43.1481481 49.8148148,42.7777778 C50.6481481,42.3148148 51.2037037,41.5740741 51.2037037,40.5555556 C51.0185185,30.3703704 51.0185185,12.962963 51.0185185,2.59259259 C51.1111111,1.94444444 50.6481481,1.2962963 50.0925926,1.01851852 L50.0925926,1.01851852 Z M47.8703704,39.7222222 C44.2592593,36.8518519 39.8148148,34.6296296 34.6296296,33.0555556 L34.6296296,12.3148148 C39.3518519,10.3703704 43.7037037,8.05555556 47.6851852,5.27777778 C47.7777778,15.5555556 47.7777778,30.2777778 47.8703704,39.7222222 L47.8703704,39.7222222 Z M31.4814815,13.5185185 L31.4814815,32.3148148 C27.5925926,31.5740741 24.2592593,31.3888889 22.1296296,31.3888889 C20.9259259,31.3888889 20.1851852,31.4814815 19.9074074,31.4814815 L11.2037037,31.4814815 C9.16666667,31.4814815 7.22222222,30.6481481 5.74074074,29.1666667 C4.25925926,27.6851852 3.51851852,25.6481481 3.61111111,23.5185185 C3.7962963,19.4444444 7.22222222,16.2962963 11.4814815,16.2962963 L20.0925926,16.2962963 L20.1851852,16.2962963 C20.2777778,16.2962963 20.3703704,16.2962963 20.5555556,16.2037037 C21.8518519,15.9259259 25.8333333,15.3703704 31.4814815,13.5185185 L31.4814815,13.5185185 Z M18.3333333,34.7222222 L18.3333333,46.1111111 L12.7777778,46.1111111 L12.7777778,34.7222222 L18.3333333,34.7222222 L18.3333333,34.7222222 Z"
                            id="Shape"></path>
                </g>
            </g>
        </g>
    </g>
</svg>
