<?xml version="1.0" encoding="UTF-8" standalone="no"?>
<svg width="72px" height="72px" viewBox="0 0 72 72" version="1.1" xmlns="http://www.w3.org/2000/svg"
     xmlns:sketch="http://www.bohemiancoding.com/sketch/ns">
    <!-- Generator: Sketch 3.4.1 (15681) - http://www.bohemiancoding.com/sketch -->
    <title>rent</title>
    <desc>Created with Sketch.</desc>
    <defs></defs>
    <g id="Page-1" stroke="none" stroke-width="1" fill="none" fill-rule="evenodd" sketch:type="MSPage">
        <g id="rent" sketch:type="MSArtboardGroup" fill="#000000">
            <g id="icon-42" sketch:type="MSLayerGroup" transform="translate(3.000000, 1.000000)">
                <g id="Layer_1" sketch:type="MSShapeGroup">
                    <g id="Group">
                        <path
                                d="M65,12.7 C64.9,11.4 65,10.2 64.4,9 C63.9,7.8 63,6.9 62.1,6 C59.6,3.9 56.4,2.7 53.2,1.9 C45.8,0.2 36.9,0.5 30,4.1 C27.5,5.4 24.9,7.5 24.3,10.4 C24.1,11.3 24,14.1 24,14.5 L24,21.1 C19.1,20.8 14.1,21.3 9.4,23 C6.3,24.2 2.8,26.1 1.6,29.3 C1.3,30 1,30.6 1,31.3 L1,55.4 C1,57.8 0.7,60.2 2.2,62.3 C3.5,64.2 5.9,65.6 8,66.5 C13.2,68.7 19,69.4 24.6,68.9 C29.7,68.4 35.5,67.3 39.3,63.7 C40.1,62.9 40.8,62.1 41.2,61 C41.4,60.5 41.5,60.1 41.6,59.6 C41.7,59.2 41.6,58.2 41.8,58.1 C42,57.9 43.3,58.1 43.7,58.1 L45.9,58.1 C47.3,58.1 48.7,58 50.2,57.8 C55,57.2 61.4,55.5 64,51 C65.1,49.1 64.9,46.9 64.9,44.8 C65,43.3 65.1,14.4 65,12.7 L65,12.7 Z M4,36.8 C9.2,41.1 15.4,41.8 21.2,41.9 C27.1,42 34,41 38.8,37.1 L38.8,39.8 C38.8,40.5 38.9,41.2 38.6,41.9 C38,43.2 36.6,44.3 35.4,45 C32.8,46.5 29.8,47.3 26.9,47.7 C20.8,48.6 13.8,48.2 8.3,45.4 C6.9,44.7 5.2,43.6 4.5,42.1 C3.6,40.6 4,38.5 4,36.8 C4,37.6 4,36.8 4,36.8 L4,36.8 Z M62,26.4 C62,26.4 62.4,30.2 61.7,31.7 C61,33 59.7,34 58.4,34.7 C55.8,36.2 52.7,36.9 49.7,37.3 C48.1,37.5 46.5,37.6 44.8,37.6 L43.3,37.6 C43,37.6 41.8,37.5 41.8,37.5 L41.8,31.3 C45.4,31.6 49.1,31.2 52.6,30.3 C56,29.7 59.3,28.6 62,26.4 C62,27.7 62,26.4 62,26.4 L62,26.4 Z M4,49.1 L4,46.3 C8.6,50.2 15.7,51.2 21.6,51.2 C27.4,51.2 34.3,50.2 38.9,46.4 C38.9,47.8 39.2,49.5 38.6,50.8 C38.1,52.1 36.8,53.1 35.6,53.8 C33.3,55.2 30.6,55.9 28.1,56.4 C22.3,57.5 15.8,57.2 10.3,55.2 C7.7,54.1 4,52.3 4,49.1 C4,48.1 4,50.1 4,49.1 L4,49.1 Z M41.8,46.6 L41.8,40.6 C45.5,40.8 49.2,40.7 52.8,39.9 C56,39.2 59.4,38.1 62,35.9 C62,37.1 62.1,38.3 62,39.5 C61.9,40.6 61.4,41.5 60.6,42.2 C59.1,43.6 57.2,44.5 55.2,45.2 C50.9,46.5 46.3,46.9 41.8,46.6 C41.8,45.9 41.8,46.6 41.8,46.6 L41.8,46.6 Z M44.6,4 C48.1,4 51.7,4.4 55,5.5 C57.2,6.2 59.6,7.3 61.1,9.1 C64.1,12.8 59,15.8 56,17 C49.6,19.5 42,19.6 35.4,17.7 C32.6,16.9 25.5,14.3 27.5,10.1 C28.5,8 31,6.8 33.1,6 C36.7,4.5 40.7,4 44.6,4 L44.6,4 Z M27.2,21.1 L27.2,17 C31.9,20.9 38.7,21.9 44.6,21.9 C50.6,21.9 57.1,20.6 62,17 C62,18.3 62.1,19.5 62,20.8 C61.9,22.3 61,23.4 59.8,24.3 C57.4,26.2 54.2,27.1 51.2,27.7 C48.1,28.4 45,28.6 41.9,28.4 C41,28.3 41,28.2 40.5,27.5 C40.2,27.1 39.8,26.6 39.4,26.3 C38.5,25.5 37.5,24.8 36.5,24.3 C35.1,23.6 33.7,23 32.2,22.5 C31.4,22.2 30.5,22 29.7,21.8 C29.3,21.7 28.8,21.6 28.3,21.5 C28.1,21.5 28,21.4 27.8,21.4 C27.3,21.4 27.2,21.6 27.2,21.1 L27.2,21.1 Z M21.6,24 C25.1,24 28.7,24.4 32,25.5 C34.2,26.2 36.6,27.3 38.1,29.1 C41.1,32.8 36,35.8 33,37 C26.6,39.5 19,39.6 12.4,37.7 C9.6,36.9 2.5,34.3 4.5,30.1 C5.5,28 8,26.7 10.1,25.9 C13.7,24.5 17.7,24 21.6,24 L21.6,24 Z M37.6,61.1 C35.3,63.4 32.2,64.4 29.1,65.1 C25.5,65.9 21.7,66.2 18,65.8 C14.6,65.5 10.7,64.7 7.7,62.9 C6.5,62.2 5,61.3 4.4,60 C3.7,58.5 4,56.6 4,55 C8.6,58.9 15.6,59.8 21.4,59.8 C27.2,59.8 34.2,58.8 38.8,54.9 C38.8,57.1 39.3,59.5 37.6,61.1 C36.1,62.6 38.5,60.3 37.6,61.1 L37.6,61.1 Z M61.1,49.9 C59,52.4 55.4,53.6 52.3,54.2 C48.8,55 45.3,54.9 41.8,54.9 L41.8,49.5 C45.5,49.7 49.2,49.6 52.8,48.8 C56,48.1 59.4,46.9 62,44.8 C62,46.6 62.3,48.5 61.1,49.9 C59.7,51.6 61.7,49.2 61.1,49.9 L61.1,49.9 Z"
                                id="Shape"></path>
                        <path
                                d="M25.7,27.9 L23.2,27.9 C23.7,28.2 24.1,28.7 24.3,29.2 L25.7,29.2 C25.9,29.2 26,29.3 26,29.5 L26,30.1 C26,30.2 25.8,30.4 25.7,30.4 L24.3,30.4 C24.1,31.7 22.8,32.4 21.7,32.7 L24.1,35.9 C24.2,36.1 24.1,36.3 23.8,36.3 L21.6,36.3 C21.5,36.3 21.4,36.2 21.3,36.2 L19,33 L17.4,33 C17.2,33 17.1,32.9 17.1,32.7 L17.1,31.6 C17.1,31.5 17.3,31.3 17.4,31.3 L19.9,31.3 C20.8,31.3 21.5,31 21.7,30.4 L17.4,30.4 C17.2,30.4 17.1,30.3 17.1,30.1 L17.1,29.5 C17.1,29.4 17.3,29.2 17.4,29.2 L21.7,29.2 C21.4,28.6 20.8,28.3 19.9,28.3 L17.4,28.3 C17.2,28.3 17.1,28.2 17.1,28 L17.1,27 C17.1,26.9 17.3,26.7 17.4,26.7 L25.7,26.7 C25.9,26.7 26,26.8 26,27 L26,27.6 C26.1,27.8 25.9,27.9 25.7,27.9 L25.7,27.9 Z"
                                id="Shape"></path>
                        <path
                                d="M48.7,7.9 L46.2,7.9 C46.7,8.2 47.1,8.7 47.3,9.2 L48.7,9.2 C48.9,9.2 49,9.3 49,9.5 L49,10.1 C49,10.2 48.8,10.4 48.7,10.4 L47.3,10.4 C47.1,11.7 45.8,12.4 44.7,12.7 L47.1,15.9 C47.2,16.1 47.1,16.3 46.8,16.3 L44.6,16.3 C44.5,16.3 44.4,16.2 44.3,16.2 L42,13 L40.4,13 C40.2,13 40.1,12.9 40.1,12.7 L40.1,11.6 C40.1,11.5 40.3,11.3 40.4,11.3 L42.9,11.3 C43.8,11.3 44.5,11 44.7,10.4 L40.4,10.4 C40.2,10.4 40.1,10.3 40.1,10.1 L40.1,9.5 C40.1,9.4 40.3,9.2 40.4,9.2 L44.7,9.2 C44.4,8.6 43.8,8.3 42.9,8.3 L40.4,8.3 C40.2,8.3 40.1,8.2 40.1,8 L40.1,7 C40.1,6.9 40.3,6.7 40.4,6.7 L48.7,6.7 C48.9,6.7 49,6.8 49,7 L49,7.6 C49.1,7.8 48.9,7.9 48.7,7.9 L48.7,7.9 Z"
                                id="Shape"></path>
                    </g>
                </g>
            </g>
        </g>
    </g>
</svg>
