<?xml version="1.0" encoding="UTF-8" standalone="no"?>
<svg width="72px" height="72px" viewBox="0 0 72 72" version="1.1" xmlns="http://www.w3.org/2000/svg"
     xmlns:sketch="http://www.bohemiancoding.com/sketch/ns">
    <!-- Generator: Sketch 3.3.3 (12081) - http://www.bohemiancoding.com/sketch -->
    <title>search</title>
    <desc>Created with Sketch.</desc>
    <defs></defs>
    <g id="Page-1" stroke="none" stroke-width="1" fill="none" fill-rule="evenodd" sketch:type="MSPage">
        <g id="search" sketch:type="MSArtboardGroup" fill="#000000">
            <g id="icon-05" sketch:type="MSLayerGroup" transform="translate(2.000000, 2.000000)">
                <path
                        d="M67.6,65.4 L46.4,44 C50.5,39.3 53,33.2 53,26.5 C53,11.9 41.1,0 26.5,0 C11.9,0 0,11.9 0,26.5 C0,41.1 11.9,53 26.5,53 C33.3,53 39.6,50.4 44.3,46.1 L65.4,67.5 C65.7,67.8 66.1,67.9 66.5,67.9 C66.9,67.9 67.3,67.8 67.6,67.5 C68.1,67 68.1,66 67.6,65.4 L67.6,65.4 Z M3,26.5 C3,13.6 13.5,3 26.5,3 C39.5,3 50,13.6 50,26.5 C50,39.4 39.5,50 26.5,50 C13.5,50 3,39.5 3,26.5 L3,26.5 Z"
                        id="Shape" sketch:type="MSShapeGroup"></path>
            </g>
        </g>
    </g>
</svg>
