<?xml version="1.0" encoding="UTF-8" standalone="no"?>
<svg width="72px" height="72px" viewBox="0 0 72 72" version="1.1" xmlns="http://www.w3.org/2000/svg"
     xmlns:sketch="http://www.bohemiancoding.com/sketch/ns">
    <!-- Generator: Sketch 3.4.2 (15857) - http://www.bohemiancoding.com/sketch -->
    <title>user</title>
    <desc>Created with Sketch.</desc>
    <defs></defs>
    <g id="Page-1" stroke="none" stroke-width="1" fill="none" fill-rule="evenodd" sketch:type="MSPage">
        <g id="user" sketch:type="MSArtboardGroup" fill="#020202">
            <g id="icon_Artboard-54-copy-3" sketch:type="MSLayerGroup" transform="translate(1.000000, 2.000000)">
                <g id="Layer_1" sketch:type="MSShapeGroup">
                    <g id="Group">
                        <path
                                d="M35,38.1 C31.2,38.1 27.5,37 24.4,34.9 C19.1,31.3 16,25.4 16,19 C16,8.5 24.5,0 35,0 C45.5,0 54,8.5 54,19 C54,29.5 45.5,38.1 35,38.1 L35,38.1 Z M35,3 C26.2,3 19,10.2 19,19 C19,24.3 21.6,29.3 26.1,32.3 C28.8,34.1 31.9,35 35.1,35 C43.9,35 51.1,27.8 51.1,19 C51.1,10.2 43.8,3 35,3 L35,3 Z"
                                id="Shape"></path>
                        <path
                                d="M68,68 L2,68 C1.2,68 0.5,67.3 0.5,66.5 C0.5,66.3 0.7,44.9 18.5,41.2 C20.3,40.8 21.8,41 23.1,41.6 C26.8,43.4 30.8,44.3 34.9,44.3 C39.1,44.3 43,43.4 46.7,41.7 C48.1,41 49.8,40.9 51.6,41.4 C69.3,46.2 69.5,66.4 69.5,66.6 C69.5,67 69.3,67.4 69.1,67.7 C68.9,68 68.4,68 68,68 L68,68 Z M3.6,65 L66.4,65 C66,60.6 63.7,47.7 50.8,44.2 C50.1,44 49,43.9 48,44.3 C43.9,46.2 39.5,47.2 34.9,47.2 C30.3,47.2 25.8,46.2 21.8,44.3 C21.1,44 20.2,43.9 19.1,44.1 C6.2,46.8 4,60.4 3.6,65 L3.6,65 Z"
                                id="Shape"></path>
                    </g>
                </g>
            </g>
        </g>
    </g>
</svg>
